<?xml version="1.0" ?><svg id="Layer_1" style="enable-background:new 0 0 64 64;" version="1.1" viewBox="0 0 64 64" xml:space="preserve" xmlns="http://www.w3.org/2000/svg" xmlns:xlink="http://www.w3.org/1999/xlink"><style type="text/css">
	.st0{fill:#231F20;}
</style><path class="st0" d="M20,20c-1.6,1.6-2.9,3.5-3.7,5.6c-0.8,2-1.2,4.2-1.2,6.4c0,0.6-0.4,1-1,1s-1-0.4-1-1c0-2.5,0.5-4.9,1.4-7.1  c1-2.4,2.4-4.5,4.2-6.3s3.9-3.2,6.3-4.2c4.6-1.8,9.7-1.8,14.3,0c2.2,0.9,4.2,2.2,6,3.9v-6.1c0-0.6,0.4-1,1-1s1,0.4,1,1v8.5  c0,0.6-0.4,1-1,1h-8.5c-0.6,0-1-0.4-1-1s0.4-1,1-1h6c-1.6-1.5-3.3-2.6-5.3-3.4c-4.1-1.7-8.7-1.7-12.8,0C23.5,17.1,21.6,18.4,20,20z   M50,31c-0.6,0-1,0.4-1,1c0,2.2-0.4,4.4-1.2,6.4c-0.9,2.1-2.1,4-3.7,5.6c-1.6,1.6-3.5,2.9-5.6,3.7c-4.1,1.7-8.7,1.7-12.8,0  c-2-0.8-3.7-2-5.3-3.4h6c0.6,0,1-0.4,1-1s-0.4-1-1-1h-8.5c-0.6,0-1,0.4-1,1v8.5c0,0.6,0.4,1,1,1s1-0.4,1-1v-6.1c1.7,1.7,3.8,3,6,3.9  c2.3,0.9,4.7,1.4,7.1,1.4c2.5,0,4.9-0.5,7.1-1.4c2.4-1,4.5-2.4,6.3-4.2c1.8-1.8,3.2-3.9,4.2-6.3c0.9-2.3,1.4-4.7,1.4-7.1  C51,31.4,50.6,31,50,31z"/></svg>